<?xml version="1.0" encoding="UTF-8"?>
<svg xmlns="http://www.w3.org/2000/svg" xmlns:xlink="http://www.w3.org/1999/xlink" width="3000" height="3000" viewBox="0 0 3000 3000">
<rect x="-300" y="-300" width="3600" height="3600" fill="rgb(100%, 100%, 100%)" fill-opacity="1"/>
<path fill-rule="nonzero" fill="rgb(33.325195%, 59.959412%, 100%)" fill-opacity="1" d="M 1678.738281 1204.710938 C 1711.199219 1522 1477.371094 1803.679688 1156.460938 1833.851562 C 1091.640625 1839.941406 1028.230469 1835.308594 968.027344 1821.421875 C 945.121094 1816.128906 714.816406 1938.820312 723.808594 1917.449219 C 747.335938 1861.558594 803.070312 1766.25 793.65625 1760.789062 C 637.277344 1670.089844 536.203125 1505.46875 516.609375 1313.960938 C 484.144531 996.671875 717.976562 714.988281 1038.890625 684.820312 C 1359.800781 654.648438 1646.269531 887.421875 1678.738281 1204.710938 "/>
<path fill-rule="nonzero" fill="rgb(100%, 50.193787%, 50.193787%)" fill-opacity="1" d="M 1321.261719 1640.789062 C 1288.800781 1958.078125 1522.628906 2239.757812 1843.539062 2269.925781 C 1908.359375 2276.019531 1971.769531 2271.386719 2031.96875 2257.496094 C 2054.878906 2252.214844 2285.191406 2374.898438 2276.191406 2353.527344 C 2252.660156 2297.636719 2196.929688 2202.328125 2206.351562 2196.867188 C 2362.71875 2106.171875 2463.800781 1941.539062 2483.390625 1750.039062 C 2515.859375 1432.75 2282.03125 1151.070312 1961.109375 1120.898438 C 1640.199219 1090.730469 1353.730469 1323.488281 1321.261719 1640.789062 "/>
<path fill-rule="nonzero" fill="rgb(100%, 100%, 100%)" fill-opacity="1" d="M 942.789062 1175.019531 C 942.789062 1145.148438 942.789062 1145.148438 961.96875 1114.648438 C 981.144531 1083.839844 981.144531 1083.839844 1017.929688 1063.71875 C 1054.71875 1043.601562 1054.71875 1043.601562 1103.761719 1043.601562 C 1149.351562 1043.601562 1149.351562 1043.601562 1184.25 1060.578125 C 1219.148438 1077.238281 1219.148438 1077.238281 1238.011719 1106.171875 C 1257.191406 1135.089844 1257.191406 1135.089844 1257.191406 1169.050781 C 1257.191406 1195.769531 1257.191406 1195.769531 1246.179688 1215.890625 C 1235.488281 1236.011719 1235.488281 1236.011719 1220.398438 1250.789062 C 1205.628906 1265.25 1205.628906 1265.25 1166.960938 1299.828125 C 1156.269531 1309.578125 1156.269531 1309.578125 1149.660156 1317.128906 C 1143.378906 1324.359375 1143.378906 1324.359375 1140.230469 1330.648438 C 1137.089844 1336.621094 1137.089844 1336.621094 1135.199219 1342.910156 C 1133.628906 1348.878906 1133.628906 1348.878906 1130.171875 1364.289062 C 1124.199219 1396.980469 1124.199219 1396.980469 1092.761719 1396.980469 C 1076.410156 1396.980469 1076.410156 1396.980469 1065.089844 1386.289062 C 1054.089844 1375.601562 1054.089844 1375.601562 1054.089844 1354.539062 C 1054.089844 1328.128906 1054.089844 1328.128906 1062.261719 1308.949219 C 1070.441406 1289.460938 1070.441406 1289.460938 1083.949219 1275 C 1097.46875 1260.21875 1097.46875 1260.21875 1120.421875 1240.101562 C 1140.550781 1222.488281 1140.550781 1222.488281 1149.351562 1213.691406 C 1158.46875 1204.570312 1158.46875 1204.570312 1164.441406 1193.570312 C 1170.730469 1182.558594 1170.730469 1182.558594 1170.730469 1169.671875 C 1170.730469 1144.519531 1170.730469 1144.519531 1151.859375 1127.230469 C 1133.308594 1109.941406 1133.308594 1109.941406 1103.761719 1109.941406 C 1069.179688 1109.941406 1069.179688 1109.941406 1052.828125 1127.539062 C 1036.480469 1144.839844 1036.480469 1144.839844 1025.160156 1178.789062 C 1014.46875 1214.320312 1014.46875 1214.320312 984.605469 1214.320312 C 967 1214.320312 967 1214.320312 954.738281 1202.058594 C 942.789062 1189.480469 942.789062 1189.480469 942.789062 1175.019531 Z M 1096.21875 1519.601562 C 1077.039062 1519.601562 1077.039062 1519.601562 1062.578125 1507.339844 C 1048.429688 1494.761719 1048.429688 1494.761719 1048.429688 1472.441406 C 1048.429688 1452.628906 1048.429688 1452.628906 1062.261719 1439.109375 C 1076.089844 1425.589844 1076.089844 1425.589844 1096.21875 1425.589844 C 1116.019531 1425.589844 1116.019531 1425.589844 1129.539062 1439.109375 C 1143.058594 1452.628906 1143.058594 1452.628906 1143.058594 1472.441406 C 1143.058594 1494.449219 1143.058594 1494.449219 1128.910156 1507.019531 C 1114.769531 1519.601562 1114.769531 1519.601562 1096.21875 1519.601562 "/>
<path fill-rule="nonzero" fill="rgb(100%, 100%, 100%)" fill-opacity="1" d="M 1865.429688 1748.800781 L 1855.371094 1598.210938 C 1852.539062 1554.191406 1852.539062 1554.191406 1852.539062 1535.011719 C 1852.539062 1508.921875 1852.539062 1508.921875 1866.058594 1494.460938 C 1879.890625 1479.679688 1879.890625 1479.679688 1902.210938 1479.679688 C 1929.25 1479.679688 1929.25 1479.679688 1938.371094 1498.539062 C 1947.488281 1517.089844 1947.488281 1517.089844 1947.488281 1552.300781 C 1947.488281 1573.050781 1947.488281 1573.050781 1945.289062 1594.429688 L 1931.769531 1749.429688 C 1929.558594 1777.101562 1929.558594 1777.101562 1922.328125 1791.878906 C 1915.101562 1806.648438 1915.101562 1806.648438 1898.441406 1806.648438 C 1881.460938 1806.648438 1881.460938 1806.648438 1874.859375 1792.5 C 1868.261719 1778.039062 1868.261719 1778.039062 1865.429688 1748.800781 Z M 1900.328125 1955.679688 C 1881.148438 1955.679688 1881.148438 1955.679688 1866.691406 1943.421875 C 1852.539062 1930.839844 1852.539062 1930.839844 1852.539062 1908.519531 C 1852.539062 1889.019531 1852.539062 1889.019531 1866.058594 1875.511719 C 1879.890625 1861.671875 1879.890625 1861.671875 1899.699219 1861.671875 C 1919.5 1861.671875 1919.5 1861.671875 1933.339844 1875.511719 C 1947.488281 1889.019531 1947.488281 1889.019531 1947.488281 1908.519531 C 1947.488281 1930.519531 1947.488281 1930.519531 1933.339844 1943.101562 C 1919.191406 1955.679688 1919.191406 1955.679688 1900.328125 1955.679688 "/>
</svg>
